<svg id="Capa_1" data-name="Capa 1" xmlns="http://www.w3.org/2000/svg" viewBox="0 0 1000 1000"><defs><style>.cls-1{fill:#303030;}.cls-2{fill:#fff;}</style></defs><title>Logo para fondo azul</title><path class="cls-1" d="M295.07,652.85c-3.14-7.37,70.15-160.27,67.11-166.83s-45.57,2.61-50.33,0-5.12-161.74,0-166.83,171.95-7.43,176.15,0-17.65,58.4-25.16,62.56-100.66,0-100.66,0v41.71s81.21-4,83.88,0-83.77,193.91-80.74,200.72,59,41.75,64,39.1-3-57.91,0-62.56,46.3-34.2,50.33-31.28,4.53,195,0,198.11S298.21,660.23,295.07,652.85Z"/><rect class="cls-2" x="58.21" y="622.86" width="214.23" height="56.78" rx="9.95" ry="9.95"/><path class="cls-1" d="M54.07,319.19c5.84-2.67,57.28-4,61.21,0s-4.91,96.79,0,98.34,40.45-57.37,45.91-57.06,40.9,59.47,45.91,57.06,0-98.34,0-98.34,55.16-6,61.21,0,7.78,276.52,0,282.08S167.59,468.75,161.18,468.12,61.07,607.56,54.07,601.27,48.23,321.86,54.07,319.19Z"/><path class="cls-2" d="M933.49,202.53a59,59,0,0,0-98.31,58.14l-33.25,33.26a199.22,199.22,0,0,0-113.23-35.1c-110.55,0-200.16,89.62-200.16,200.16,0,101.06,74.9,184.62,172.22,198.21v46.9a59,59,0,1,0,56.83,0v-47c96.85-14,171.27-97.34,171.27-198.08a199.32,199.32,0,0,0-45.08-126.54l31.59-31.6a59,59,0,0,0,58.12-98.33ZM648.19,405.78a3.76,3.76,0,0,1-3.53,3.84h-44a3,3,0,0,0-3,3.25V430.6a2.46,2.46,0,0,0,2.72,2.66H621a3.31,3.31,0,0,1,3,3V489.7a3.21,3.21,0,0,1-3.26,3.25H600.36c-1.36,0-2.72,2.07-2.72,3.84v71.8c0,2.66-1.36,4.14-3.53,4.14H546.82c-1.36,0-3-1.77-3-3.84V355.26c0-2.07,1.36-4.14,3.26-4.14h97.83a3.21,3.21,0,0,1,3.26,3.25Zm62,163.11c0,1.77-1.36,3.84-3.26,3.84H661.5c-1.9,0-3.53-2.07-3.53-4.43V354.07c0-1.48,1.09-3,2.45-3h46.47a3,3,0,0,1,3.26,3Zm131.8-162.22a3.89,3.89,0,0,1-3.8,4.14H811c-1.9,0-3.26,1.48-3.26,4.14V568.89a3.81,3.81,0,0,1-3.8,3.84H757.7a4.06,4.06,0,0,1-3.8-4.14V414.35a3.5,3.5,0,0,0-3.53-3.55H723.19c-1.63,0-3.53-2.36-3.53-4.14v-52.6c0-1.77.82-3,2.45-3H838.42a3.33,3.33,0,0,1,3.53,3.55Z"/></svg>